<?xml version="1.0" encoding="utf-8"?>
<!-- Generator: Adobe Illustrator 19.2.1, SVG Export Plug-In . SVG Version: 6.00 Build 0)  -->
<svg version="1.1" id="layer" xmlns="http://www.w3.org/2000/svg" xmlns:xlink="http://www.w3.org/1999/xlink" x="0px" y="0px"
	 viewBox="0 0 652 652" style="enable-background:new 0 0 652 652;" xml:space="preserve">
<style type="text/css">
	.st0{fill:#520044;}
	.st1{fill:#FA005A;}
	.st2{fill:#FFC500;}
</style>
<path class="st0" d="M172.9,503.2c0.7,0,1.3,0.3,1.8,0.8c0.5,0.5,0.8,1.1,0.8,1.8v6.8c0,0.7-0.3,1.3-0.8,1.8
	c-0.5,0.5-1.1,0.8-1.8,0.8h-30.6v18.6H171c0.7,0,1.3,0.3,1.8,0.8c0.5,0.5,0.8,1.1,0.8,1.8v6.8c0,0.7-0.3,1.3-0.8,1.8
	c-0.5,0.5-1.1,0.8-1.8,0.8h-28.7v22c0,0.7-0.3,1.3-0.8,1.8c-0.5,0.5-1.1,0.8-1.8,0.8h-7.8c-0.7,0-1.3-0.3-1.8-0.8
	c-0.5-0.5-0.8-1.1-0.8-1.8v-62c0-0.7,0.3-1.3,0.8-1.8c0.5-0.5,1.1-0.8,1.8-0.8H172.9z M214.3,503.2c1,0,1.8,0.3,2.3,0.8
	c0.5,0.5,1,1.4,1.3,2.4l23.5,60.7c0.1,0.2,0.1,0.4,0.1,0.7c0,0.7-0.3,1.3-0.8,1.8c-0.5,0.5-1.1,0.8-1.8,0.8H232
	c-1.3,0-2.2-0.3-2.7-0.8c-0.5-0.5-0.9-1.1-1.1-1.6l-4.1-10.7h-30.3l-4.1,10.7c-0.2,0.5-0.5,1-1.1,1.6c-0.5,0.5-1.4,0.8-2.7,0.8H179
	c-0.7,0-1.3-0.3-1.8-0.8c-0.5-0.5-0.8-1.1-0.8-1.8c0-0.3,0-0.5,0.1-0.7l23.5-60.7c0.4-1.1,0.8-1.9,1.3-2.4c0.5-0.5,1.3-0.8,2.3-0.8
	H214.3z M219.5,545.3L209,517.9l-10.6,27.4H219.5z M293.8,570.3c-1.1,0-1.9-0.3-2.5-0.9c-0.6-0.6-1-1-1.2-1.3l-26.9-39.9v39.5
	c0,0.7-0.3,1.3-0.8,1.8c-0.5,0.5-1.1,0.8-1.8,0.8h-7.8c-0.7,0-1.3-0.3-1.8-0.8c-0.5-0.5-0.8-1.1-0.8-1.8v-62c0-0.7,0.3-1.3,0.8-1.8
	c0.5-0.5,1.1-0.8,1.8-0.8h6.7c1.1,0,1.9,0.3,2.5,0.9c0.6,0.6,1,1,1.2,1.3l26.9,39.9v-39.5c0-0.7,0.3-1.3,0.8-1.8
	c0.5-0.5,1.1-0.8,1.8-0.8h7.8c0.7,0,1.3,0.3,1.8,0.8c0.5,0.5,0.8,1.1,0.8,1.8v62c0,0.7-0.3,1.3-0.8,1.8c-0.5,0.5-1.1,0.8-1.8,0.8
	H293.8z M344.4,503.2c4.7,0,8.8,0.6,12.3,1.9c3.5,1.2,6.4,3,8.7,5.3c2.3,2.3,4.1,5.1,5.4,8.3c1.2,3.3,2,6.9,2.3,10.9
	c0.3,4.7,0.3,9.5,0,14.2c-0.3,4-1,7.7-2.3,10.9c-1.2,3.3-3,6-5.3,8.3c-2.3,2.3-5.2,4.1-8.6,5.3c-3.4,1.2-7.4,1.9-12,1.9h-24.2
	c-0.7,0-1.3-0.3-1.8-0.8c-0.5-0.5-0.8-1.1-0.8-1.8v-62c0-0.7,0.3-1.3,0.8-1.8c0.5-0.5,1.1-0.8,1.8-0.8H344.4z M360.1,529.7
	c-0.1-2-0.5-3.9-1.2-5.7c-0.7-1.8-1.7-3.3-3-4.6c-1.3-1.3-3-2.3-4.9-3.1c-2-0.7-4.4-1.1-7.1-1.1h-12.9v43.2h13.3
	c2.6,0,4.9-0.4,6.8-1.1c1.9-0.7,3.5-1.7,4.8-3c1.3-1.3,2.3-2.8,2.9-4.6c0.7-1.8,1.1-3.7,1.2-5.8
	C360.4,539.1,360.4,534.4,360.1,529.7z M383.4,528.2c0.2-3.6,0.9-7,2.1-10.1c1.2-3.2,2.9-5.9,5.2-8.3c2.3-2.3,5.2-4.2,8.6-5.6
	c3.5-1.4,7.5-2.1,12.3-2.1c4.7,0,8.7,0.7,12.2,2c3.5,1.3,6.3,3.2,8.6,5.6c2.3,2.4,4.1,5.1,5.3,8.3c1.2,3.1,1.9,6.5,2.1,10.2
	c0.1,1.2,0.1,2.6,0.1,4c0,1.5,0,3,0,4.6c0,1.6,0,3.1,0,4.6c0,1.5-0.1,2.8-0.1,4c-0.2,3.6-0.9,7-2.1,10.1c-1.2,3.2-2.9,5.9-5.2,8.3
	c-2.3,2.3-5.2,4.2-8.7,5.5c-3.5,1.3-7.6,2-12.2,2c-4.7,0-8.8-0.7-12.3-2s-6.3-3.2-8.6-5.5c-2.3-2.3-4-5.1-5.2-8.3
	c-1.2-3.2-1.9-6.5-2.1-10.1c-0.1-1.2-0.1-2.6-0.1-4c0-1.5,0-3,0-4.6c0-1.6,0-3.1,0-4.6C383.2,530.8,383.3,529.4,383.4,528.2z
	 M426.8,528.7c-0.3-4.6-1.7-8.2-4.5-10.7c-2.7-2.5-6.3-3.8-10.8-3.8c-4.5,0-8.1,1.3-10.8,3.8c-2.7,2.5-4.2,6.1-4.5,10.7
	c-0.1,2.4-0.2,5.1-0.2,8.1c0,3,0.1,5.7,0.2,8.1c0.3,4.6,1.7,8.2,4.5,10.7c2.7,2.5,6.3,3.7,10.8,3.7c4.5,0,8.1-1.2,10.8-3.7
	c2.7-2.5,4.2-6,4.5-10.7c0.1-2.4,0.2-5.1,0.2-8.1C427,533.8,427,531.1,426.8,528.7z M483.9,537.4l18.2-31.7c0.3-0.3,0.7-0.8,1.3-1.5
	c0.6-0.7,1.5-1.1,2.8-1.1h6.5c0.7,0,1.3,0.3,1.8,0.8c0.5,0.5,0.8,1.1,0.8,1.8v62c0,0.7-0.3,1.3-0.8,1.8c-0.5,0.5-1.1,0.8-1.8,0.8
	h-7.8c-0.7,0-1.3-0.3-1.8-0.8c-0.5-0.5-0.8-1.1-0.8-1.8v-37.5L490,551.8c-0.3,0.5-0.8,1-1.3,1.6c-0.6,0.5-1.3,0.8-2.2,0.8h-5
	c-0.9,0-1.6-0.3-2.2-0.8c-0.6-0.5-1-1.1-1.3-1.6l-12.5-21.6v37.5c0,0.7-0.3,1.3-0.8,1.8c-0.5,0.5-1.1,0.8-1.8,0.8H455
	c-0.7,0-1.3-0.3-1.8-0.8c-0.5-0.5-0.8-1.1-0.8-1.8v-62c0-0.7,0.3-1.3,0.8-1.8c0.5-0.5,1.1-0.8,1.8-0.8h6.5c1.3,0,2.2,0.4,2.8,1.1
	c0.6,0.7,1,1.2,1.3,1.5L483.9,537.4z"/>
<path class="st1" d="M449.6,260.3l-186.9-187c-1-1-2.2-1.6-3.5-1.9c-1.3-0.3-2.7-0.1-4,0.4c-1.3,0.5-2.3,1.4-3.1,2.5
	c-0.8,1.1-1.2,2.5-1.2,3.8v157.2l-56.6-56.6c-1-1-2.2-1.6-3.5-1.9c-1.3-0.3-2.7-0.1-4,0.4c-1.3,0.5-2.3,1.4-3.1,2.5
	c-0.8,1.1-1.2,2.5-1.2,3.8V346c0,5.1,1,10.1,2.9,14.8c1.9,4.7,4.8,8.9,8.4,12.5l73.6,73.7c7.2,7.2,17.1,11.3,27.3,11.3h53.9
	c10.2,0,20.1-4.1,27.3-11.3l73.6-73.7c3.6-3.6,6.4-7.8,8.4-12.5c1.9-4.7,2.9-9.7,2.9-14.8v-58.4c0-5.1-1-10.1-2.9-14.8
	C456.1,268.1,453.2,263.9,449.6,260.3L449.6,260.3z"/>
<path class="st2" d="M392.6,328.7c0,3.1-1.2,6-3.4,8.2l-59.4,59.7c-1.1,1.1-2.4,1.9-3.8,2.5c-1.4,0.6-2.9,0.9-4.4,0.9
	s-3-0.3-4.4-0.9c-1.4-0.6-2.7-1.4-3.8-2.5l-59.2-59.7c-2.2-2.2-3.4-5.1-3.4-8.2V306c0-1.5,0.3-3,0.9-4.4c0.6-1.4,1.4-2.7,2.5-3.8
	l21.3-21.3c1.1-1.1,2.4-1.9,3.8-2.5c1.4-0.6,2.9-0.9,4.4-0.9c1.5,0,3,0.3,4.4,0.9s2.7,1.4,3.8,2.5l29.8,29.8l29.7-29.8
	c1.1-1.1,2.4-1.9,3.8-2.5c1.4-0.6,2.9-0.9,4.4-0.9c1.5,0,3,0.3,4.4,0.9c1.4,0.6,2.7,1.4,3.8,2.5l21.3,21.3c1.1,1.1,1.9,2.3,2.5,3.8
	c0.6,1.4,0.9,2.9,0.9,4.4V328.7L392.6,328.7z"/>
</svg>
